<svg width="218" height="71" viewBox="0 0 218 71" fill="none" xmlns="http://www.w3.org/2000/svg">
<rect x="1.46004" y="0.83321" width="214.959" height="68.7825" rx="6.31676" stroke="white" stroke-width="1.40373"/>
<path d="M44.3199 36.0619C44.3396 34.5305 44.7464 33.0289 45.5024 31.6969C46.2584 30.3648 47.339 29.2457 48.6438 28.4436C47.8149 27.2598 46.7215 26.2856 45.4502 25.5984C44.179 24.9111 42.765 24.5298 41.3206 24.4846C38.2395 24.1612 35.2525 26.3283 33.6824 26.3283C32.0819 26.3283 29.6645 24.5167 27.0614 24.5702C25.3776 24.6246 23.7366 25.1143 22.2983 25.9914C20.86 26.8686 19.6735 28.1034 18.8543 29.5754C15.3057 35.7192 17.9526 44.7486 21.3519 49.7148C23.0526 52.1466 25.0402 54.863 27.641 54.7666C30.1861 54.6611 31.1366 53.1438 34.2086 53.1438C37.2522 53.1438 38.144 54.7666 40.7976 54.7054C43.5285 54.6611 45.2491 52.2628 46.8902 49.8079C48.1121 48.0752 49.0524 46.1601 49.6762 44.1337C48.0896 43.4626 46.7356 42.3394 45.7831 40.904C44.8306 39.4686 44.3217 37.7846 44.3199 36.0619Z" fill="white"/>
<path d="M39.3078 21.2182C40.7968 19.4307 41.5304 17.1331 41.3528 14.8135C39.0779 15.0524 36.9765 16.1397 35.4674 17.8586C34.7295 18.6983 34.1644 19.6753 33.8043 20.7335C33.4442 21.7918 33.2963 22.9107 33.3688 24.0262C34.5067 24.0379 35.6324 23.7913 36.6611 23.3049C37.6898 22.8185 38.5948 22.105 39.3078 21.2182Z" fill="white"/>
<path d="M76.4909 48.6104H67.8058L65.7201 54.7689H62.0415L70.2678 31.9839H74.0898L82.3161 54.7689H78.5747L76.4909 48.6104ZM68.7053 45.7685H75.5896L72.1959 35.7737H72.1009L68.7053 45.7685Z" fill="white"/>
<path d="M100.082 46.4638C100.082 51.6261 97.3191 54.9428 93.1495 54.9428C92.0933 54.998 91.0428 54.7547 90.1184 54.2407C89.1941 53.7267 88.4331 52.9628 87.9227 52.0364H87.8438V60.2645H84.434V38.1569H87.7346V40.9199H87.7973C88.3311 39.9979 89.1049 39.238 90.0364 38.7208C90.9678 38.2037 92.022 37.9487 93.0868 37.983C97.3029 37.9831 100.082 41.3159 100.082 46.4638ZM96.5773 46.4638C96.5773 43.1006 94.8392 40.8894 92.1873 40.8894C89.5819 40.8894 87.8295 43.1471 87.8295 46.4638C87.8295 49.811 89.5819 52.0526 92.1873 52.0526C94.8392 52.0526 96.5773 49.8576 96.5773 46.4638Z" fill="white"/>
<path d="M118.366 46.4638C118.366 51.6261 115.603 54.9428 111.433 54.9428C110.377 54.998 109.327 54.7547 108.402 54.2407C107.478 53.7267 106.717 52.9628 106.207 52.0364H106.128V60.2645H102.718V38.1568H106.018V40.9199H106.081C106.615 39.9979 107.389 39.2379 108.32 38.7208C109.252 38.2037 110.306 37.9487 111.371 37.983C115.587 37.983 118.366 41.3158 118.366 46.4638ZM114.861 46.4638C114.861 43.1005 113.123 40.8894 110.471 40.8894C107.866 40.8894 106.113 43.1471 106.113 46.4638C106.113 49.8109 107.866 52.0525 110.471 52.0525C113.123 52.0525 114.861 49.8575 114.861 46.4638H114.861Z" fill="white"/>
<path d="M130.45 48.4205C130.703 50.68 132.898 52.1635 135.897 52.1635C138.771 52.1635 140.839 50.6799 140.839 48.6426C140.839 46.874 139.592 45.8151 136.639 45.0894L133.686 44.378C129.502 43.3674 127.56 41.4107 127.56 38.2356C127.56 34.3043 130.986 31.604 135.851 31.604C140.665 31.604 143.966 34.3043 144.077 38.2356H140.635C140.429 35.9617 138.549 34.5892 135.802 34.5892C133.055 34.5892 131.176 35.9779 131.176 37.9991C131.176 39.6099 132.376 40.5578 135.313 41.2834L137.823 41.8998C142.498 43.0054 144.441 44.8833 144.441 48.216C144.441 52.4788 141.045 55.1487 135.645 55.1487C130.592 55.1487 127.18 52.5415 126.96 48.4203L130.45 48.4205Z" fill="white"/>
<path d="M151.8 34.2256V38.1569H154.959V40.8572H151.8V50.0152C151.8 51.438 152.432 52.1009 153.821 52.1009C154.196 52.0944 154.57 52.0681 154.943 52.022V54.7062C154.318 54.8229 153.684 54.8757 153.049 54.8639C149.685 54.8639 148.374 53.6006 148.374 50.3789V40.8572H145.958V38.1569H148.374V34.2256H151.8Z" fill="white"/>
<path d="M156.788 46.4638C156.788 41.2371 159.867 37.9526 164.667 37.9526C169.484 37.9526 172.548 41.237 172.548 46.4638C172.548 51.705 169.5 54.9751 164.667 54.9751C159.836 54.9751 156.788 51.705 156.788 46.4638ZM169.073 46.4638C169.073 42.8784 167.43 40.7622 164.667 40.7622C161.904 40.7622 160.263 42.8945 160.263 46.4638C160.263 50.0636 161.904 52.1637 164.667 52.1637C167.43 52.1637 169.073 50.0636 169.073 46.4638H169.073Z" fill="white"/>
<path d="M175.359 38.1567H178.611V40.9842H178.69C178.91 40.1011 179.427 39.3207 180.155 38.7741C180.883 38.2275 181.776 37.9481 182.686 37.9829C183.079 37.9815 183.471 38.0242 183.854 38.1101V41.2996C183.358 41.148 182.84 41.0784 182.322 41.0935C181.827 41.0734 181.333 41.1608 180.874 41.3495C180.416 41.5383 180.004 41.8241 179.666 42.1872C179.329 42.5503 179.074 42.9821 178.919 43.453C178.764 43.924 178.713 44.4229 178.769 44.9155V54.7688H175.359L175.359 38.1567Z" fill="white"/>
<path d="M199.576 49.8898C199.117 52.9055 196.18 54.9751 192.423 54.9751C187.59 54.9751 184.59 51.7372 184.59 46.5427C184.59 41.332 187.606 37.9526 192.279 37.9526C196.875 37.9526 199.765 41.1098 199.765 46.1467V47.315H188.033V47.521C187.978 48.1324 188.055 48.7483 188.257 49.3278C188.459 49.9073 188.782 50.4372 189.205 50.8822C189.628 51.3273 190.14 51.6773 190.709 51.909C191.277 52.1408 191.888 52.249 192.501 52.2264C193.307 52.3019 194.116 52.1153 194.807 51.6943C195.498 51.2733 196.035 50.6404 196.338 49.8898L199.576 49.8898ZM188.049 44.9318H196.354C196.384 44.3821 196.301 43.832 196.109 43.316C195.917 42.8001 195.62 42.3294 195.238 41.9335C194.855 41.5376 194.395 41.225 193.886 41.0155C193.377 40.8059 192.83 40.7038 192.279 40.7156C191.724 40.7123 191.173 40.819 190.66 41.0296C190.146 41.2401 189.679 41.5503 189.285 41.9423C188.892 42.3343 188.58 42.8003 188.368 43.3134C188.156 43.8265 188.047 44.3766 188.049 44.9318V44.9318Z" fill="white"/>
<path d="M68.2779 14.8332C68.9928 14.7819 69.7102 14.8899 70.3783 15.1494C71.0463 15.4089 71.6485 15.8135 72.1413 16.3339C72.6341 16.8543 73.0053 17.4776 73.2281 18.1588C73.4508 18.84 73.5196 19.5622 73.4295 20.2732C73.4295 23.7709 71.5391 25.7814 68.2779 25.7814H64.3234V14.8332H68.2779ZM66.0238 24.2331H68.088C68.5988 24.2636 69.11 24.1799 69.5844 23.9879C70.0588 23.796 70.4844 23.5007 70.8303 23.1235C71.1761 22.7463 71.4335 22.2968 71.5837 21.8076C71.7339 21.3184 71.7731 20.8018 71.6985 20.2955C71.7677 19.7913 71.7245 19.2779 71.572 18.7923C71.4195 18.3067 71.1615 17.8608 70.8164 17.4866C70.4713 17.1125 70.0478 16.8192 69.5761 16.628C69.1044 16.4367 68.5962 16.3522 68.088 16.3804H66.0238V24.2331Z" fill="white"/>
<path d="M75.3503 21.6467C75.2983 21.1038 75.3605 20.556 75.5326 20.0384C75.7048 19.5209 75.9833 19.045 76.3501 18.6414C76.717 18.2377 77.1642 17.9152 77.663 17.6945C78.1618 17.4739 78.7012 17.3599 79.2466 17.3599C79.7921 17.3599 80.3315 17.4739 80.8303 17.6945C81.3291 17.9152 81.7763 18.2377 82.1431 18.6414C82.51 19.045 82.7884 19.5209 82.9606 20.0384C83.1328 20.556 83.1949 21.1038 83.143 21.6467C83.1959 22.1903 83.1345 22.7388 82.9628 23.2572C82.7911 23.7756 82.5128 24.2523 82.1458 24.6568C81.7789 25.0612 81.3314 25.3844 80.8321 25.6055C80.3328 25.8267 79.7927 25.9409 79.2466 25.9409C78.7005 25.9409 78.1605 25.8267 77.6612 25.6055C77.1619 25.3844 76.7144 25.0612 76.3474 24.6568C75.9805 24.2523 75.7022 23.7756 75.5304 23.2572C75.3587 22.7388 75.2974 22.1903 75.3503 21.6467ZM81.4658 21.6467C81.4658 19.8558 80.6613 18.8085 79.2493 18.8085C77.832 18.8085 77.0347 19.8558 77.0347 21.6468C77.0347 23.452 77.832 24.4913 79.2493 24.4913C80.6613 24.4913 81.4658 23.4448 81.4658 21.6467H81.4658Z" fill="white"/>
<path d="M93.5016 25.7812H91.8101L90.1025 19.6961H89.9735L88.273 25.7812H86.5977L84.3203 17.519H85.9741L87.4542 23.8235H87.576L89.2747 17.519H90.839L92.5376 23.8235H92.6666L94.1395 17.519H95.7701L93.5016 25.7812Z" fill="white"/>
<path d="M97.6856 17.5192H99.2552V18.8317H99.377C99.5837 18.3603 99.9324 17.9651 100.374 17.7013C100.816 17.4374 101.33 17.318 101.843 17.3597C102.245 17.3295 102.648 17.3901 103.024 17.537C103.399 17.684 103.737 17.9136 104.011 18.2087C104.286 18.5038 104.491 18.8569 104.61 19.2419C104.73 19.6269 104.761 20.0339 104.702 20.4327V25.7812H103.072V20.8421C103.072 19.5144 102.495 18.8541 101.289 18.8541C101.016 18.8414 100.744 18.8878 100.49 18.9903C100.237 19.0927 100.009 19.2487 99.8213 19.4476C99.634 19.6465 99.4918 19.8835 99.4046 20.1424C99.3174 20.4014 99.2872 20.6761 99.3161 20.9479V25.7813H97.6855L97.6856 17.5192Z" fill="white"/>
<path d="M107.301 14.2939H108.931V25.7814H107.301V14.2939Z" fill="white"/>
<path d="M111.198 21.6464C111.146 21.1034 111.208 20.5556 111.38 20.038C111.552 19.5204 111.831 19.0445 112.198 18.6409C112.565 18.2373 113.012 17.9148 113.511 17.6941C114.01 17.4734 114.549 17.3594 115.095 17.3594C115.64 17.3594 116.179 17.4734 116.678 17.6941C117.177 17.9148 117.624 18.2373 117.991 18.6409C118.358 19.0445 118.637 19.5204 118.809 20.038C118.981 20.5556 119.043 21.1034 118.991 21.6464C119.044 22.1899 118.983 22.7385 118.811 23.2569C118.639 23.7753 118.361 24.252 117.994 24.6564C117.627 25.0608 117.179 25.384 116.68 25.6052C116.181 25.8263 115.641 25.9406 115.095 25.9406C114.548 25.9406 114.008 25.8263 113.509 25.6052C113.01 25.384 112.562 25.0608 112.195 24.6564C111.828 24.252 111.55 23.7753 111.378 23.2569C111.206 22.7385 111.145 22.1899 111.198 21.6464ZM117.313 21.6464C117.313 19.8555 116.509 18.8082 115.097 18.8082C113.679 18.8082 112.882 19.8555 112.882 21.6464C112.882 23.4517 113.68 24.491 115.097 24.491C116.509 24.4909 117.313 23.4445 117.313 21.6464H117.313Z" fill="white"/>
<path d="M120.708 23.4444C120.708 21.9572 121.815 21.0998 123.781 20.978L126.019 20.849V20.1358C126.019 19.2632 125.442 18.7704 124.327 18.7704C123.417 18.7704 122.786 19.1046 122.605 19.6888H121.027C121.194 18.2696 122.528 17.3594 124.403 17.3594C126.474 17.3594 127.642 18.3906 127.642 20.1358V25.781H126.073V24.6199H125.944C125.682 25.0364 125.314 25.3759 124.878 25.6038C124.442 25.8317 123.953 25.9398 123.462 25.9171C123.115 25.9532 122.765 25.9162 122.433 25.8085C122.101 25.7008 121.796 25.5248 121.536 25.2918C121.277 25.0588 121.069 24.7741 120.926 24.4559C120.784 24.1377 120.709 23.7931 120.708 23.4444ZM126.019 22.7384V22.0477L124.001 22.1767C122.864 22.2529 122.347 22.6399 122.347 23.3683C122.347 24.1119 122.993 24.5446 123.88 24.5446C124.139 24.5709 124.402 24.5447 124.652 24.4674C124.901 24.3902 125.133 24.2636 125.332 24.0951C125.532 23.9265 125.695 23.7196 125.813 23.4865C125.931 23.2535 126.001 22.9991 126.019 22.7384Z" fill="white"/>
<path d="M129.785 21.6468C129.785 19.0361 131.127 17.3822 133.215 17.3822C133.731 17.3584 134.244 17.4821 134.692 17.7388C135.141 17.9954 135.507 18.3745 135.749 18.8317H135.87V14.2939H137.501V25.7814H135.939V24.476H135.81C135.55 24.9301 135.171 25.3045 134.713 25.5586C134.256 25.8127 133.738 25.9368 133.215 25.9176C131.113 25.9176 129.785 24.2637 129.785 21.6468ZM131.47 21.6468C131.47 23.3992 132.296 24.4537 133.677 24.4537C135.052 24.4537 135.901 23.384 135.901 21.6539C135.901 19.932 135.043 18.847 133.677 18.847C132.305 18.847 131.47 19.9087 131.47 21.6468H131.47Z" fill="white"/>
<path d="M144.247 21.6467C144.195 21.1038 144.257 20.556 144.43 20.0384C144.602 19.5209 144.88 19.045 145.247 18.6414C145.614 18.2377 146.061 17.9152 146.56 17.6945C147.059 17.4739 147.598 17.3599 148.144 17.3599C148.689 17.3599 149.229 17.4739 149.727 17.6945C150.226 17.9152 150.673 18.2377 151.04 18.6414C151.407 19.045 151.685 19.5209 151.858 20.0384C152.03 20.556 152.092 21.1038 152.04 21.6467C152.093 22.1903 152.032 22.7388 151.86 23.2572C151.688 23.7756 151.41 24.2523 151.043 24.6568C150.676 25.0612 150.228 25.3844 149.729 25.6055C149.23 25.8267 148.69 25.9409 148.144 25.9409C147.598 25.9409 147.058 25.8267 146.558 25.6055C146.059 25.3844 145.611 25.0612 145.244 24.6568C144.877 24.2523 144.599 23.7756 144.427 23.2572C144.256 22.7388 144.194 22.1903 144.247 21.6467ZM150.363 21.6467C150.363 19.8558 149.558 18.8085 148.146 18.8085C146.729 18.8085 145.932 19.8558 145.932 21.6468C145.932 23.452 146.729 24.4913 148.146 24.4913C149.558 24.4913 150.363 23.4448 150.363 21.6467Z" fill="white"/>
<path d="M154.228 17.5192H155.797V18.8317H155.919C156.126 18.3603 156.475 17.9651 156.917 17.7013C157.359 17.4374 157.872 17.318 158.385 17.3597C158.787 17.3295 159.191 17.3901 159.566 17.537C159.941 17.684 160.279 17.9136 160.554 18.2087C160.828 18.5038 161.033 18.8569 161.153 19.2419C161.272 19.6269 161.304 20.0339 161.245 20.4327V25.7812H159.614V20.8421C159.614 19.5144 159.037 18.8541 157.831 18.8541C157.558 18.8414 157.286 18.8878 157.032 18.9903C156.779 19.0927 156.551 19.2487 156.364 19.4476C156.176 19.6465 156.034 19.8835 155.947 20.1424C155.86 20.4014 155.829 20.6761 155.858 20.9479V25.7813H154.228V17.5192Z" fill="white"/>
<path d="M170.458 15.4619V17.5566H172.248V18.93H170.458V23.1785C170.458 24.0439 170.815 24.4229 171.626 24.4229C171.834 24.4222 172.042 24.4097 172.248 24.3852V25.7435C171.955 25.7958 171.659 25.8237 171.361 25.8268C169.548 25.8268 168.826 25.1889 168.826 23.5959V18.9299H167.514V17.5565H168.826V15.4619H170.458Z" fill="white"/>
<path d="M174.476 14.2939H176.092V18.847H176.221C176.438 18.3712 176.796 17.9738 177.247 17.7089C177.697 17.4441 178.219 17.3247 178.74 17.367C179.14 17.3452 179.54 17.412 179.911 17.5625C180.282 17.713 180.615 17.9436 180.887 18.2378C181.159 18.532 181.362 18.8826 181.483 19.2644C181.604 19.6463 181.639 20.0502 181.585 20.4471V25.7814H179.953V20.8494C179.953 19.5297 179.339 18.8613 178.186 18.8613C177.906 18.8383 177.624 18.8769 177.361 18.9742C177.097 19.0716 176.857 19.2254 176.659 19.4249C176.461 19.6244 176.309 19.8648 176.213 20.1293C176.118 20.3937 176.081 20.6759 176.106 20.956V25.7814H174.476L174.476 14.2939Z" fill="white"/>
<path d="M191.093 23.5503C190.871 24.3054 190.391 24.9586 189.737 25.3955C189.083 25.8325 188.295 26.0254 187.513 25.9406C186.969 25.955 186.428 25.8507 185.928 25.6351C185.428 25.4194 184.981 25.0975 184.617 24.6918C184.254 24.286 183.984 23.8061 183.825 23.2854C183.666 22.7646 183.622 22.2155 183.696 21.676C183.624 21.135 183.668 20.5847 183.827 20.0623C183.986 19.54 184.255 19.0579 184.616 18.6486C184.977 18.2393 185.422 17.9123 185.921 17.6899C186.419 17.4675 186.96 17.3549 187.506 17.3595C189.805 17.3595 191.192 18.9301 191.192 21.5246V22.0936H185.357V22.1849C185.332 22.4881 185.37 22.7933 185.469 23.0809C185.569 23.3685 185.727 23.6322 185.934 23.8551C186.141 24.0779 186.393 24.255 186.672 24.375C186.952 24.495 187.253 24.5553 187.558 24.5519C187.948 24.5987 188.343 24.5285 188.693 24.3501C189.043 24.1718 189.332 23.8933 189.523 23.5502L191.093 23.5503ZM185.357 20.8876H189.53C189.551 20.6103 189.513 20.3318 189.42 20.0699C189.326 19.8081 189.179 19.5687 188.988 19.3671C188.796 19.1655 188.564 19.0063 188.308 18.8995C188.051 18.7928 187.775 18.7409 187.497 18.7473C187.215 18.7437 186.935 18.7967 186.674 18.903C186.412 19.0093 186.175 19.1669 185.976 19.3663C185.776 19.5658 185.619 19.8032 185.513 20.0645C185.406 20.3257 185.354 20.6056 185.357 20.8876H185.357Z" fill="white"/>
</svg>
