<svg width="185" height="185" viewBox="0 0 185 185" fill="none" xmlns="http://www.w3.org/2000/svg">
<g clip-path="url(#clip0_1_74)">
<g clip-path="url(#clip1_1_74)">
<path d="M38.608 99.2718L28.1915 110.648H9.0251L19.3379 99.2718H38.608ZM72.8366 81.1981C79.8595 81.1981 82.2845 85.6534 82.4591 89.0673H76.3286C76.1928 87.6014 75.0677 86.2706 72.7977 86.2706C70.7414 86.2706 69.5774 87.2543 69.5774 88.5465C69.5774 92.4618 82.556 88.5465 82.556 98.1129C82.556 102.298 78.967 105.596 72.6231 105.596C65.2511 105.577 62.7484 101.835 62.4381 97.4765H68.8789C68.9758 99.0387 70.1399 100.505 72.7783 100.505C75.2034 100.505 76.445 99.656 76.445 98.3637C76.445 94.4485 63.4275 98.1323 63.4275 88.8937C63.4275 84.6698 67.0553 81.1981 72.8366 81.1981ZM155.831 81.1981C163.125 81.1981 166.579 86.3092 167.025 90.2824H160.487C160.002 88.2765 158.12 86.8107 155.792 86.8107C152.397 86.8107 150.418 89.4723 150.418 93.3876C150.418 97.303 152.397 99.9646 155.792 99.9646C158.12 99.9646 160.002 98.4986 160.487 96.4928H167.025C166.579 100.447 163.125 105.577 155.831 105.577C149.021 105.577 144.055 100.331 144.055 93.3876C144.055 86.4442 149.021 81.1981 155.831 81.1981ZM106.244 81.1788C113.189 81.1788 117.884 86.4249 117.884 93.3297C117.884 94.3518 117.787 95.2005 117.787 95.2005H100.773C101.219 98.4022 103.276 100.138 106.457 100.138C108.378 100.138 110.221 99.2894 110.978 97.5922H117.38C115.983 102.318 111.695 105.558 106.283 105.558C99.3373 105.558 94.468 100.485 94.468 93.3297C94.468 86.4249 99.2985 81.1788 106.244 81.1788ZM90.8788 76.2991V81.7188H95.5543V86.8685H90.8788V105.037H84.5156V76.2991H90.8788ZM133.075 81.1981C138.72 81.1981 141.708 84.9398 141.708 90.4945V105.037H135.344V91.1889C135.344 88.4694 134.18 86.5985 131.367 86.5985C128.283 86.5985 126.575 88.5658 126.575 91.671V105.018H120.212V81.7188H126.09V84.5733C127.157 82.5675 129.582 81.1981 133.075 81.1981ZM175.755 81.7188V105.037H169.391V81.7188H175.755ZM185.513 73.7725V105.037H179.15V73.7725H185.513ZM50.8998 85.7892L40.4888 97.1651H0.900513L11.3116 85.7892H50.8998ZM106.166 86.2706C103.276 86.2706 101.394 88.0064 100.851 90.6681H111.501C111.055 88.045 109.134 86.2706 106.166 86.2706ZM42.7747 72.3066L32.4062 83.6826H13.1919L23.5758 72.3066H42.7747ZM172.554 72.3066C174.785 72.3066 176.395 73.9075 176.395 76.1255C176.395 78.3435 174.785 79.9058 172.554 79.9058C170.342 79.9058 168.712 78.3628 168.712 76.1255C168.712 73.9075 170.323 72.3066 172.554 72.3066Z" fill="#393939"/>
</g>
</g>
<defs>
<clipPath id="clip0_1_74">
<rect width="184.612" height="184.612" fill="white" transform="translate(0.387573)"/>
</clipPath>
<clipPath id="clip1_1_74">
<rect width="184.612" height="38.4609" fill="white" transform="translate(0.900513 72.3066)"/>
</clipPath>
</defs>
</svg>
