<svg width="186" height="185" viewBox="0 0 186 185" fill="none" xmlns="http://www.w3.org/2000/svg">
<g clip-path="url(#clip0_1_70)">
<path d="M136.128 84.8873V110.756H126.864V84.8873H136.128ZM148.073 84.8364L152.305 90.9849L156.65 84.8364H166.199L156.936 97.1331L167 110.706H156.765L151.676 103.687L146.587 110.706H137.037L147.044 97.5392L137.838 84.8364H148.073ZM114.743 84.0193C121.706 84.0193 123.793 88.8515 123.834 94.1823L123.834 94.344V110.585H114.571L114.571 96.7325L114.57 96.5242L114.566 96.32L114.562 96.1199L114.555 95.9238C114.554 95.8915 114.552 95.8593 114.551 95.8273L114.541 95.6373C114.538 95.5747 114.534 95.5127 114.53 95.4514L114.517 95.2697C114.514 95.2397 114.512 95.2099 114.509 95.1803L114.493 95.0047L114.474 94.8332C114.211 92.6021 113.354 91.4438 111.14 91.4438C108.516 91.4438 107.378 93.2877 107.096 96.2275L107.078 96.4368C107.044 96.859 107.026 97.3028 107.024 97.7659L107.023 110.585H97.7602V96.8381L97.7594 96.6279C97.7591 96.5931 97.7588 96.5586 97.7583 96.5242L97.7549 96.32L97.7497 96.1199L97.7425 95.9238L97.7334 95.7318C97.7317 95.7001 97.73 95.6686 97.7281 95.6373L97.716 95.4514L97.7017 95.2697L97.6852 95.092C97.4446 92.6918 96.5696 91.4438 94.2721 91.4438C91.2718 91.4438 90.177 93.9451 90.1554 97.7659L90.1551 110.585H80.8919V84.7154H90.1551V88.6016C91.5274 85.7596 94.2721 84.0193 98.1032 84.0193C102.621 84.0193 104.965 86.1074 106.051 89.1237C107.424 86.2235 110.454 84.0193 114.743 84.0193ZM65.8137 83.2023C74.2486 83.2023 78.7602 89.001 78.8496 95.9269L78.8509 96.1371V98.747H60.9534C61.1821 101.937 63.4694 103.445 66.2713 103.445C68.7546 103.445 70.3465 102.598 71.2122 100.624L71.246 100.545L78.6794 101.241C77.3643 107.158 72.6755 110.464 65.9281 110.464C57.7514 110.464 51.9189 105.475 51.9189 97.239C51.9189 89.0607 57.8656 83.2023 65.8137 83.2023ZM37.3314 73.8062C46.6743 73.8062 51.3171 78.2831 51.3171 85.4346C51.3171 90.7836 48.05 94.2721 43.6364 94.8535C47.3621 95.6094 49.5401 97.7607 49.9414 102.005L49.9995 102.786L50.0502 103.515L50.094 104.198L50.1244 104.712L50.1571 105.32L50.1741 105.666L50.1982 106.217L50.2177 106.737L50.2274 107.036L50.2404 107.515L50.2517 108.062L50.2558 108.327L50.2631 109.094L50.2655 109.894L50.2656 110.372H40.6309C40.6309 110.17 40.6324 109.976 40.6348 109.785L40.6406 109.408L40.6572 108.493L40.6615 108.187L40.6641 107.87C40.6644 107.816 40.6646 107.761 40.6648 107.706L40.6643 107.399L40.6615 107.076L40.6576 106.823L40.6497 106.469L40.6382 106.093L40.6229 105.694L40.6032 105.269L40.5917 105.045L40.572 104.696L40.5493 104.33L40.5142 103.812L40.4839 103.4C40.2175 99.5073 38.662 98.4302 35.8176 98.2984L35.6323 98.2912L35.4434 98.2865C35.3799 98.2854 35.3157 98.2846 35.251 98.2842L20 98.284V90.6674H35.612C39.7388 90.6674 41.8022 89.3936 41.8022 86.0214C41.8022 83.0563 39.7388 81.2592 35.612 81.2592H20V73.8062H37.3314ZM30.1874 104.694C31.4515 104.694 31.9804 105.401 32.1688 106.077L32.189 106.155C32.1922 106.168 32.1952 106.181 32.1981 106.194L32.214 106.271L32.2273 106.347C32.2293 106.359 32.2312 106.372 32.233 106.384L32.2425 106.459L32.2497 106.531C32.2507 106.543 32.2516 106.555 32.2524 106.567L32.2563 106.637C32.2568 106.649 32.2572 106.66 32.2575 106.671L32.2584 106.738V110.372H20V104.694H30.1874ZM65.6994 89.9306C63.3802 89.9306 62.0698 91.0598 61.4427 92.7128L61.3958 92.8409L61.3516 92.9711C61.3086 93.1023 61.2697 93.2363 61.2345 93.3731L61.2006 93.5106C61.1788 93.6029 61.1587 93.6964 61.1402 93.7908L61.1137 93.9333C61.1095 93.9572 61.1054 93.9811 61.1014 94.0052L61.0784 94.1499L61.0679 94.2228H70.0451C69.9307 91.9027 68.4441 89.9306 65.6994 89.9306ZM136.185 74.2146V82.4511H126.807V74.2146H136.185Z" fill="#121212"/>
</g>
<defs>
<clipPath id="clip0_1_70">
<rect width="147" height="37" fill="white" transform="translate(20 73.8062)"/>
</clipPath>
</defs>
</svg>
