<svg width="185" height="186" viewBox="0 0 185 186" fill="none" xmlns="http://www.w3.org/2000/svg">
<g clip-path="url(#clip0_1_99)">
<g clip-path="url(#clip1_1_99)">
<path d="M94.4444 96.1577C94.4444 98.2123 93.7595 99.9556 92.3898 101.325C90.5842 103.131 87.658 104.127 84.1091 104.065C81.5564 104.003 79.0037 103.38 77.5717 102.508L78.5057 97.4029C80.0622 98.2746 82.7394 99.1462 84.7317 99.1462C86.4128 99.1462 87.4712 98.3991 87.4712 97.1539C87.4712 96.0332 86.6618 95.2861 84.6695 94.2899C81.4942 92.7334 79.9377 90.7411 79.9377 88.3751C79.9377 83.7679 83.9223 80.5926 89.8371 80.5926C92.9501 80.5926 95.0047 81.3397 96.1254 82.0868L95.1915 87.1299C94.3199 86.4451 92.0162 85.5112 89.5258 85.5112C87.7825 85.5112 86.6618 86.2583 86.6618 87.4412C86.6618 88.3129 87.5335 89.06 89.339 89.9939C91.7672 91.2391 94.4444 93.0447 94.4444 96.1577ZM184.909 100.89C185.034 99.333 183.913 98.0878 182.357 98.0878C180.8 98.0878 179.43 99.333 179.306 100.89C179.181 102.322 180.177 103.691 181.858 103.691C183.415 103.691 184.785 102.446 184.909 100.89ZM184.536 100.89C184.411 102.197 183.228 103.318 181.858 103.318C180.551 103.318 179.617 102.259 179.742 100.952C179.866 99.6443 181.049 98.5236 182.419 98.5236C183.664 98.5236 184.598 99.5821 184.536 100.89ZM182.606 101.263L183.041 102.571H182.606L182.17 101.325H181.547L181.298 102.571H180.862L181.485 99.2708H182.543C183.041 99.2708 183.415 99.6443 183.415 100.08C183.477 100.516 183.166 101.076 182.606 101.263ZM182.606 99.6443H181.858L181.609 100.89H182.294C182.668 100.89 182.979 100.578 183.041 100.205C183.104 99.9556 182.917 99.6443 182.606 99.6443ZM170.465 98.8972C173.266 98.8972 175.695 98.2123 178.31 96.7181L177.251 102.322C174.076 103.94 170.34 104.127 168.908 104.127C162.682 104.127 159.196 100.703 159.196 94.6635C159.196 91.1769 160.503 87.6903 162.682 85.1376C165.048 82.3359 168.597 80.7171 172.27 80.7171C176.94 80.7171 180.115 83.4566 180.115 87.5035C180.115 89.3713 179.493 90.9278 178.31 92.1108C176.068 94.2899 170.527 95.5351 165.546 94.539C165.235 97.2784 167.352 98.8972 170.465 98.8972ZM166.169 90.1184C170.091 90.1807 172.27 89.7449 173.266 88.811C174.325 87.7525 173.951 85.5734 171.399 85.5734C168.535 85.5734 166.667 87.9393 166.169 90.1184ZM140.019 91.0524L137.591 103.629H131.24L132.05 99.2708C131.178 101.948 128.999 104.127 125.326 104.127C120.905 104.127 118.913 100.205 118.913 96.2823C118.913 91.7995 120.656 87.379 123.582 84.4527C126.073 81.9623 129.248 80.6548 132.797 80.6548C139.085 80.7171 141.14 84.9508 140.019 91.0524ZM133.855 88.1884C133.793 86.6318 132.922 85.7602 131.49 85.7602C128.376 85.7602 125.637 91.1769 125.637 94.9125C125.637 97.2784 126.509 98.7104 128.003 98.7104C130.431 98.7104 132.548 96.1577 133.233 92.4844C133.544 91.2391 133.918 89.1845 133.855 88.1884ZM37.6004 91.0524L35.1722 103.629H28.8216L29.631 99.2708C28.7594 101.948 26.5802 104.127 22.9068 104.127C18.4863 104.127 16.494 100.205 16.494 96.2823C16.494 91.7995 18.2373 87.379 21.1635 84.4527C23.654 81.9623 26.8293 80.6548 30.3781 80.6548C36.6665 80.7171 38.7833 84.9508 37.6004 91.0524ZM31.4988 88.1884C31.4366 86.6318 30.5649 85.7602 29.1329 85.7602C26.0199 85.7602 23.2804 91.1769 23.2804 94.9125C23.2804 97.2784 24.1521 98.7104 25.6463 98.7104C28.0745 98.7104 30.1914 96.1577 30.8762 92.4844C31.1253 91.2391 31.4988 89.1845 31.4988 88.1884ZM118.477 89.2468C118.477 94.7257 115.862 100.329 111.13 102.82C109.387 103.754 107.706 104.127 106.274 104.127C103.908 104.127 102.601 103.255 101.853 101.886L100.172 110.851H93.5105L99.1762 81.0906H105.029L104.344 84.7018C106.025 82.2736 108.453 80.6548 111.255 80.6548C115.613 80.6548 118.477 84.0169 118.477 89.2468ZM111.566 89.7449C111.566 88.6865 111.317 86.1338 108.889 86.1338C106.398 86.1338 104.282 88.9355 103.472 93.2315C103.161 94.7257 102.414 99.084 105.465 99.084C108.951 99.084 111.566 94.1031 111.566 89.7449ZM9.58306 86.0715L10.517 81.0906H4.66446L0.306213 104.065H6.96811L8.77367 94.6012C9.8321 88.9978 13.0074 86.7564 17.6147 87.5035L18.9222 80.6548C14.9375 80.219 11.2018 82.4604 9.58306 86.0715ZM63.065 103.629L65.3686 91.5504L70.1005 103.629H77.2604L72.3419 91.4882L81.2451 81.0906H73.9606L65.3686 91.3637L68.6685 73.9307H62.0688L56.4031 103.691H63.065V103.629ZM155.771 80.7171C147.428 80.7171 141.14 86.8186 141.14 94.9125C141.14 100.516 144.876 104.127 150.604 104.127C153.094 104.127 155.46 103.691 157.016 102.944L158.075 97.3407C156.02 98.3369 154.401 98.7727 152.471 98.7727C150.355 98.7727 148.113 97.5897 148.113 94.1654C148.113 90.1807 150.915 86.0715 155.709 86.0715C157.141 86.0715 158.324 86.3828 159.382 86.9432L160.441 81.5265C159.196 81.0284 157.452 80.7171 155.771 80.7171ZM53.3523 80.7171C45.0094 80.7171 38.7211 86.8186 38.7211 94.9125C38.7211 100.516 42.4567 104.127 48.1847 104.127C50.6751 104.127 53.041 103.691 54.5975 102.944L55.656 97.3407C53.6014 98.3369 51.9826 98.7727 50.0525 98.7727C47.9356 98.7727 45.6943 97.5897 45.6943 94.1654C45.6943 90.1807 48.496 86.0715 53.2901 86.0715C54.7221 86.0715 55.905 86.3828 56.9635 86.9432L58.0219 81.5265C56.7767 81.0284 55.0334 80.7171 53.3523 80.7171Z" fill="#393939"/>
</g>
</g>
<defs>
<clipPath id="clip0_1_99">
<rect width="184.612" height="184.612" fill="white" transform="translate(0.306213 0.612549)"/>
</clipPath>
<clipPath id="clip1_1_99">
<rect width="184.612" height="37.1388" fill="white" transform="translate(0.306213 73.9307)"/>
</clipPath>
</defs>
</svg>
