<svg width="185" height="186" viewBox="0 0 185 186" fill="none" xmlns="http://www.w3.org/2000/svg">
<g clip-path="url(#clip0_1_88)">
<g clip-path="url(#clip1_1_88)">
<path d="M19.2749 75.4518C19.6467 75.7644 19.706 76.3332 19.4073 76.7223C19.1086 77.1114 18.5651 77.1734 18.1933 76.8609C15.9424 74.9685 14.0674 74.3437 12.9109 74.9615C11.5651 75.6798 11.0431 77.9909 11.3148 81.2158L11.3557 81.6511C11.3785 81.8714 11.4048 82.0957 11.4347 82.3237L11.499 82.7845C11.5789 83.3235 11.6776 83.8816 11.7949 84.4566C13.4159 84.1937 15.1606 84.0219 16.9928 83.9502C17.7875 82.8816 18.5956 81.8786 19.4072 80.9498L19.8139 80.4909C20.8312 79.3595 21.8515 78.3467 22.8555 77.4701L23.2562 77.1268C26.9203 74.0469 30.3306 72.8282 32.5361 74.3267C34.4573 75.6311 34.9722 78.586 34.2587 82.5457C34.1703 83.0362 33.7188 83.3588 33.2501 83.2663C32.7815 83.1738 32.4733 82.7012 32.5616 82.2108C33.1592 78.8946 32.7658 76.6371 31.5959 75.8428C30.0755 74.8097 27.2502 75.999 24.0644 78.7764L23.709 79.0915C23.5306 79.2523 23.3512 79.4179 23.171 79.5883L22.8094 79.9352C22.4468 80.2884 22.0813 80.6601 21.7141 81.0496L21.3465 81.445C21.2851 81.5118 21.2237 81.5792 21.1623 81.647L20.7936 82.0597L20.4244 82.4838L20.0552 82.919C19.9321 83.0659 19.8091 83.2146 19.6862 83.3651L19.3176 83.822L19.2457 83.913C20.1048 83.9178 20.9789 83.9438 21.8646 83.992L22.2084 84.0118L22.8917 84.0577C23.4586 84.0993 24.0193 84.1495 24.5727 84.2078L25.2333 84.2818C25.3428 84.2947 25.452 84.308 25.5609 84.3217L26.2105 84.4072C26.7487 84.4816 27.2787 84.5639 27.7998 84.6538L28.4208 84.7652L29.0328 84.8838L29.6355 85.0094C31.6286 85.4395 33.461 85.9841 35.0759 86.6224L35.5538 86.8167C39.7949 88.5903 42.4085 91.0316 42.2744 93.7302C42.1632 95.961 40.2525 97.8025 37.0498 99.1222C36.6061 99.305 36.1047 99.0768 35.93 98.6124C35.7553 98.148 35.9734 97.6233 36.4172 97.4405C39.0581 96.3523 40.4828 94.9792 40.5497 93.6362C40.6352 91.9167 38.6695 90.1385 35.3974 88.7042L34.9903 88.5303C34.7146 88.4155 34.4304 88.3032 34.138 88.1935L33.6936 88.0309C33.5434 87.9774 33.3913 87.9245 33.2372 87.8724L32.7694 87.7181L32.2902 87.5683C32.2095 87.5437 32.1283 87.5193 32.0466 87.4951L31.5512 87.3523C31.4677 87.3288 31.3839 87.3056 31.2995 87.2826L30.7886 87.1471C30.2725 87.014 29.7414 86.8886 29.1967 86.7715L28.6475 86.6572C28.5552 86.6387 28.4625 86.6203 28.3695 86.6023L27.8072 86.4967L27.2365 86.3971C27.1407 86.381 27.0446 86.3651 26.9481 86.3496L26.3655 86.2592C26.17 86.2302 25.9732 86.2022 25.7753 86.1753L25.1778 86.0979L24.5733 86.0273C24.2694 85.9937 23.9629 85.9626 23.6541 85.9343L23.0335 85.8811C22.8257 85.8646 22.6168 85.8494 22.407 85.8353L21.7749 85.797L21.1423 85.7665L20.5146 85.744C19.7853 85.7224 19.0664 85.717 18.3604 85.7268L17.8668 85.7363L17.673 86.0058C17.5524 86.175 17.4321 86.3459 17.3123 86.5183L16.9539 87.0404C16.5373 87.6549 16.1262 88.2884 15.7225 88.9395C15.6071 89.1255 15.4933 89.3116 15.381 89.4975L15.0485 90.0552C14.6944 90.6571 14.3562 91.2577 14.0343 91.8551C14.0643 91.9303 14.0943 92.0061 14.1245 92.082L14.3592 92.6622C14.3991 92.7591 14.4393 92.8562 14.48 92.9534L14.7283 93.538L14.9856 94.1249L15.252 94.7139L15.5273 95.3047L15.8116 95.8968L16.1027 96.4853L16.3979 97.0655L16.6971 97.6371C16.7473 97.7316 16.7976 97.8257 16.8481 97.9195L17.1527 98.4777C17.2548 98.6622 17.3575 98.8452 17.4607 99.0267L17.7716 99.5663C17.8757 99.7445 17.9803 99.9212 18.0853 100.096L18.4015 100.616L18.7199 101.126C18.9861 101.547 19.2543 101.957 19.5239 102.356L19.8479 102.829C20.0644 103.14 20.2815 103.444 20.4989 103.741L20.8252 104.18L21.1518 104.607C21.2062 104.678 21.2606 104.747 21.315 104.816L21.6414 105.226L21.9673 105.623C22.2929 106.013 22.6174 106.385 22.9397 106.737L23.2611 107.082L23.5808 107.414C23.7401 107.577 23.8987 107.734 24.0563 107.887L24.3704 108.184C24.5267 108.329 24.6821 108.469 24.8362 108.603L25.1429 108.865C27.2276 110.601 29.0749 111.302 30.3013 110.647C31.453 110.033 32.0026 108.238 31.962 105.694L31.9515 105.307C31.9465 105.176 31.9401 105.043 31.9322 104.908L31.904 104.5C31.8931 104.362 31.8808 104.222 31.867 104.08L31.8212 103.651C31.8128 103.579 31.8041 103.506 31.795 103.433L31.7359 102.99L31.6681 102.537L31.5915 102.076C31.524 101.688 31.4474 101.291 31.3616 100.886L31.2544 100.396L31.1383 99.8988C31.1183 99.8153 31.0978 99.7316 31.0771 99.6475L30.9479 99.1398L30.8101 98.6255C30.7864 98.5393 30.7623 98.4528 30.7379 98.366L30.587 97.8425L30.4274 97.3132C30.3454 97.0471 30.2602 96.779 30.1717 96.509L29.9904 95.9667L29.8005 95.4196C29.6709 95.0535 29.5356 94.6844 29.3946 94.3129L29.1786 93.7538L28.9541 93.1914C28.916 93.0974 28.8775 93.0033 28.8386 92.909L28.6011 92.3422L28.355 91.7727C28.3133 91.6776 28.2712 91.5824 28.2288 91.4872L27.9698 90.9145C27.9259 90.8189 27.8817 90.7232 27.8371 90.6275C27.6281 90.1788 27.8062 89.6379 28.2349 89.4192C28.6636 89.2005 29.1805 89.3869 29.3895 89.8355L29.6759 90.4596C29.7698 90.6674 29.8621 90.8748 29.9529 91.0819L30.2205 91.7021C30.4834 92.3211 30.732 92.9363 30.9662 93.5464L31.1955 94.1546C31.2329 94.2557 31.2699 94.3566 31.3065 94.4574L31.5212 95.0598C31.5562 95.1598 31.5907 95.2597 31.6249 95.3594L31.8249 95.9552C31.9549 96.3508 32.0783 96.7433 32.1951 97.132L32.3652 97.7124C34.4015 104.835 34.1402 110.627 31.0859 112.257C28.6152 113.576 25.1123 111.744 21.5862 107.881L21.2214 107.474C20.9782 107.198 20.7351 106.913 20.4923 106.618L20.1285 106.17C19.1593 104.955 18.199 103.598 17.2687 102.121L16.9213 101.562C16.0565 100.15 15.2204 98.6357 14.4305 97.0384L14.2732 96.7179C14.1687 96.5035 14.0658 96.2892 13.9646 96.0751L13.6657 95.4336C13.4305 94.9207 13.2047 94.4093 12.9885 93.9003L12.8495 94.1898C12.8064 94.2801 12.7638 94.3703 12.7216 94.4604L12.4731 94.9987L12.2342 95.5332L12.0049 96.0633C11.9674 96.1513 11.9304 96.2391 11.8938 96.3267L11.6791 96.8498C11.6441 96.9366 11.6095 97.0232 11.5753 97.1095L11.3752 97.6248C11.3427 97.7102 11.3106 97.7953 11.2789 97.8803L11.0936 98.3869C11.0635 98.4708 11.0338 98.5545 11.0046 98.6379L10.8342 99.135L10.6737 99.6255C10.596 99.8689 10.5221 100.11 10.4519 100.348L10.3167 100.82L10.1916 101.284C10.1716 101.36 10.1521 101.437 10.1329 101.513L10.0232 101.964C9.93606 102.337 9.85964 102.7 9.79409 103.053L9.72066 103.472C9.23185 106.437 9.55042 108.625 10.7614 109.447C11.9812 110.275 14.2429 109.645 17.0338 107.537C17.4205 107.245 17.9602 107.336 18.2393 107.74C18.5185 108.145 18.4313 108.71 18.0447 109.002C14.737 111.501 11.8132 112.316 9.82141 110.963C7.41495 109.329 7.24579 105.007 8.84747 99.6309L9.01353 99.0898C9.12814 98.7268 9.25056 98.3594 9.38064 97.988L9.58148 97.428C9.8569 96.6775 10.1627 95.9122 10.4978 95.1358L10.7545 94.5515L11.0222 93.9635C11.3631 93.2269 11.7293 92.4825 12.1197 91.7332C12.0681 91.5947 12.0167 91.4565 11.9661 91.3187L11.7427 90.698C11.4517 89.8734 11.1883 89.0603 10.9531 88.2629L10.782 87.6679C10.6764 87.2906 10.5773 86.9171 10.4848 86.5479L10.1684 86.6164L9.69876 86.7245L9.24054 86.8379C9.16514 86.8573 9.09022 86.8768 9.0158 86.8966L8.57523 87.0179L8.14684 87.1441C8.00611 87.187 7.86745 87.2308 7.73093 87.2753L7.32783 87.4112C7.19564 87.4573 7.06563 87.5042 6.93786 87.5518L6.56133 87.6969C3.9734 88.728 2.39698 90.0811 2.32373 91.5549C2.25679 92.8981 3.53763 94.4186 6.05681 95.7875C6.48005 96.0175 6.645 96.5631 6.42524 97.006C6.20547 97.4489 5.68422 97.6216 5.26097 97.3916C2.20587 95.7314 0.487882 93.6919 0.599078 91.4609C0.753659 88.3506 4.50508 85.9766 10.085 84.7779C8.95565 79.1306 9.53043 74.7369 12.126 73.3516C14.0445 72.3267 16.551 73.1619 19.2749 75.4518ZM132.515 78.6867C140.863 78.6867 146.337 85.6521 146.337 93.5235V93.6068C146.337 101.479 140.784 108.526 132.436 108.526C124.087 108.526 118.612 101.562 118.612 93.689V93.6068C118.612 85.7348 124.165 78.6867 132.515 78.6867ZM160.434 79.0575C160.868 79.0575 161.183 79.3052 161.458 79.6766L172.21 96.2445L182.962 79.6766C183.198 79.3052 183.553 79.0575 183.985 79.0575H184.183C184.733 79.0575 185.206 79.5528 185.206 80.129V107.125C185.206 107.702 184.733 108.197 184.183 108.197C183.631 108.197 183.159 107.702 183.159 107.125V82.9733L173.037 98.3881C172.801 98.7596 172.525 98.9239 172.171 98.9239C171.816 98.9239 171.54 98.7596 171.305 98.3881L161.183 82.9733V107.167C161.183 107.743 160.75 108.197 160.199 108.197C159.647 108.197 159.214 107.744 159.214 107.167V80.129C159.214 79.5528 159.686 79.0575 160.238 79.0575H160.434ZM109.083 79.1808C109.595 79.1808 110.029 79.6338 110.029 80.1701C110.029 80.7064 109.595 81.1595 109.083 81.1595H100.261V107.126C100.261 107.702 99.7888 108.197 99.2371 108.197C98.6865 108.197 98.2132 107.702 98.2132 107.126V81.1595H89.391C88.8796 81.1595 88.4462 80.707 88.4462 80.1701C88.4462 79.6344 88.8791 79.1808 89.391 79.1808H109.083ZM68.5993 78.8926C69.308 78.8926 69.7022 79.3052 69.9769 79.9242L81.7132 106.548C81.8315 106.796 81.8707 107.002 81.8707 107.208C81.8707 107.744 81.4379 108.197 80.8856 108.197C80.4135 108.197 80.0591 107.826 79.8623 107.373L76.6331 99.9537H60.3675L57.1378 107.414C56.941 107.908 56.6264 108.197 56.1532 108.197C55.6412 108.197 55.2078 107.785 55.2078 107.29C55.2084 107.125 55.2482 106.878 55.3665 106.631L67.1414 79.9242C67.4173 79.3052 67.8109 78.8926 68.5202 78.8926H68.5993ZM132.436 80.6237C125.622 80.6237 120.739 86.3938 120.739 93.5235V93.6068C120.739 100.737 125.701 106.589 132.515 106.589C139.327 106.589 144.211 100.819 144.211 93.689V93.6068C144.211 86.4765 139.248 80.6237 132.436 80.6237ZM68.5197 81.3249L61.2338 98.0167H75.7663L68.5197 81.3249ZM24.007 92.2619C24.2936 93.6497 23.4508 95.0169 22.1247 95.3174C20.7987 95.6172 19.4922 94.7352 19.2051 93.3474C18.9191 91.9597 19.7613 90.5924 21.0874 90.2919C22.4135 89.9921 23.72 90.8741 24.007 92.2619ZM15.6471 85.8418L15.6101 85.8447C15.4511 85.8563 15.293 85.8686 15.1358 85.8818L14.5741 85.9325L14.0207 85.9897C13.9292 85.9998 13.838 86.0102 13.7472 86.0208L13.2069 86.0877C13.1176 86.0994 13.0287 86.1113 12.9402 86.1235L12.4137 86.1998L12.2047 86.2329L12.2786 86.5216C12.3942 86.9612 12.5194 87.408 12.6542 87.861L12.8205 88.4076L12.9071 88.683L13.0872 89.2379C13.1368 89.3877 13.1874 89.5381 13.239 89.689C13.5123 89.213 13.7952 88.7358 14.0872 88.2586L14.2737 87.9557C14.7233 87.2306 15.1818 86.5254 15.6471 85.8418Z" fill="#393939"/>
</g>
</g>
<defs>
<clipPath id="clip0_1_88">
<rect width="184.612" height="184.612" fill="white" transform="translate(0.0812988 0.612549)"/>
</clipPath>
<clipPath id="clip1_1_88">
<rect width="184.612" height="39.9994" fill="white" transform="translate(0.593994 72.9192)"/>
</clipPath>
</defs>
</svg>
