<svg width="186" height="186" viewBox="0 0 186 186" fill="none" xmlns="http://www.w3.org/2000/svg">
<g clip-path="url(#clip0_1_92)">
<g clip-path="url(#clip1_1_92)">
<path d="M75.1019 86.3093C80.6101 86.3093 81.8431 89.5404 81.8431 93.269V96.9828H72.2445V97.8741C72.2814 99.939 73.0198 100.756 75.6335 100.756C77.4165 100.747 79.1882 100.472 80.8907 99.939L81.5626 103.207C79.5358 103.942 77.3967 104.314 75.2422 104.307C69.8448 104.307 67.9694 101.788 67.9694 97.6216V93.0536C67.9694 89.3992 69.5938 86.3093 75.1019 86.3093ZM111.296 86.3019C116.694 86.3019 118.288 88.2182 118.288 92.5485L118.274 103.95H114.744L114.427 102.776C112.904 103.773 111.127 104.305 109.31 104.306C106.172 104.306 104.828 102.138 104.828 99.1591C104.828 95.6458 106.349 94.294 109.842 94.294H113.969V92.4817C113.969 90.5654 113.437 89.8894 110.683 89.8894C109.081 89.9073 107.486 90.087 105.921 90.4242L105.389 87.119C107.314 86.5841 109.3 86.3094 111.296 86.3019ZM139.908 86.3019C145.8 86.3019 147.387 89.5701 147.387 93.1205V97.4879C147.395 101.038 145.8 104.306 139.908 104.306C134.001 104.306 132.428 101.038 132.428 97.4879V93.1205C132.428 89.5701 134.015 86.3019 139.908 86.3019ZM71.58 80.3004V84.2445H65.0086V103.95H60.5784L60.5637 84.2445H53.9997V80.3004H71.58ZM128.264 78.8817C129.511 78.8775 130.753 79.0449 131.955 79.3794L131.505 82.7144C130.692 82.5384 129.863 82.4439 129.032 82.4321C127.341 82.4321 127.09 83.1749 127.09 84.4896V86.6584H131.468L131.224 90.1048H127.097V103.95H122.792V90.1048H120.038V86.6584H122.792V84.2445C122.792 80.6569 124.454 78.8817 128.264 78.8817ZM173.99 88.1514C176.138 87.0443 178.498 86.4137 180.909 86.3019C183.766 86.3019 184.792 88.3222 184.792 91.4121V103.95H180.488V91.88C180.488 90.959 180.096 90.4985 179.114 90.4985C177.534 90.6738 176.007 91.1798 174.633 91.984V103.95H170.298V91.88C170.298 90.959 169.907 90.4985 168.925 90.4985C167.347 90.6872 165.824 91.1923 164.443 91.984V103.95H160.139V86.6584H163.424L163.845 88.144C165.991 87.0521 168.34 86.4246 170.741 86.3019C172.102 86.1727 173.399 86.911 173.99 88.1514ZM92.9111 86.3019L93.3541 90.2831C91.7686 91.003 90.2405 91.8448 88.7837 92.8011V103.942H84.4791V86.6584H88.1118L88.3924 88.5748C89.793 87.6211 91.3123 86.8569 92.9111 86.3019ZM103.44 86.3019L103.868 90.2831C102.288 91.0035 100.765 91.8453 99.3127 92.8011V103.942H95.008V86.6584H98.6408L98.9213 88.5748C100.322 87.6211 101.841 86.8569 103.44 86.3019ZM158.042 86.3019L158.47 90.2831C156.889 91.0035 155.366 91.8453 153.914 92.8011V103.942H149.61V86.6584H153.242L153.523 88.5748C154.923 87.6209 156.443 86.8567 158.042 86.3019ZM113.969 97.4136H110.794C109.384 97.4136 108.993 97.8073 108.993 99.1145C108.993 100.422 109.384 100.853 110.72 100.853C111.861 100.835 112.978 100.529 113.969 99.9613V97.4136ZM139.908 89.9934C137.611 89.9934 136.733 91.0259 136.733 92.9645V97.6142C136.733 99.5676 137.619 100.585 139.908 100.585C142.196 100.585 143.083 99.5528 143.083 97.6142V92.9793C143.083 91.0259 142.204 89.9934 139.908 89.9934ZM75.1388 89.8523C73.0198 89.8523 72.2814 90.9887 72.2814 92.6228V93.4993H77.7526V92.6228C77.7526 90.9887 77.2579 89.8523 75.1388 89.8523Z" fill="#393939"/>
<path d="M27.0571 98.7952L39.1662 91.7687V77.6934L27.0571 84.7347V98.7952Z" fill="#393939"/>
<path d="M13.619 77.6933L25.728 84.7346V98.7951L13.619 91.7611V77.6933ZM0.180847 83.9102L12.2899 90.9441V76.8762L0.180847 69.8423V83.9102ZM13.619 107.374L25.728 114.408V100.34L13.619 93.3061" fill="#393939"/>
</g>
</g>
<defs>
<clipPath id="clip0_1_92">
<rect width="184.612" height="184.612" fill="white" transform="translate(0.693787 0.612549)"/>
</clipPath>
<clipPath id="clip1_1_92">
<rect width="184.612" height="44.6147" fill="white" transform="translate(0.180847 69.8423)"/>
</clipPath>
</defs>
</svg>
