<svg width="185" height="185" viewBox="0 0 185 185" fill="none" xmlns="http://www.w3.org/2000/svg">
<g clip-path="url(#clip0_1_78)">
<g clip-path="url(#clip1_1_78)">
<path d="M45.8746 92.1573V102.079L30.4122 112.003V102.079L45.8746 92.1573ZM30.4122 92.1573V102.079L14.9497 112.003V102.079L30.4122 92.1573ZM14.9497 92.1573V102.079L-0.512726 112.003V102.079L14.9497 92.1573ZM95.3864 90.5644C97.1365 93.7455 96.6283 97.7319 94.1398 100.343C92.7689 101.708 90.9395 102.48 89.0299 102.5C87.6505 102.533 86.3075 102.043 85.2581 101.123V109.153H81.285V87.16H85.1483V88.3159C86.2381 87.3793 87.6158 86.8698 89.0368 86.878C91.6423 86.8542 94.0625 88.2592 95.3864 90.5644ZM109.39 88.431V87.1506H113.159L113.15 102.154H109.419V100.874C108.351 101.952 106.902 102.539 105.405 102.5C102.788 102.521 100.365 101.082 99.0782 98.7405C98.3714 97.512 98.0132 96.1049 98.0443 94.6783C98.0443 91.6498 99.5654 89.1194 101.816 87.8366C102.919 87.1937 104.167 86.8599 105.435 86.8686C106.902 86.8308 108.325 87.3927 109.39 88.431ZM153.576 86.8663C156.465 86.8663 158.625 87.9917 160.054 90.273L157.012 92.209C156.161 90.9591 155.036 90.3294 153.606 90.3294C151.296 90.3294 149.745 92.1737 149.745 94.7347C149.745 97.2956 151.234 98.9825 153.576 98.9825C154.995 99.0116 156.336 98.323 157.165 97.1405L160.084 99.1235C158.686 101.186 156.314 102.467 153.606 102.467C150.747 102.467 148.224 101.092 146.824 98.7076C145.779 96.8898 145.489 94.7162 146.022 92.6768C146.554 90.6374 147.863 88.904 149.654 87.8672C150.859 87.2007 152.208 86.8565 153.576 86.8663ZM176.502 86.841L176.679 86.8428C181.089 86.8428 184.099 90.031 184.099 94.9978C184.102 95.1544 184.097 95.311 184.084 95.467L184.069 95.6228H172.847C173.152 97.8078 174.62 98.9637 176.679 98.9637C178.049 98.9957 179.36 98.3979 180.256 97.3376L180.338 97.2369L183.127 99.1211L183.04 99.245C181.576 101.291 179.302 102.432 176.679 102.432C174.398 102.432 172.36 101.562 171.052 100.153C169.688 98.6791 168.936 96.7184 168.954 94.6853C168.954 91.779 170.26 89.3144 172.635 87.9048C173.761 87.2394 175.03 86.8753 176.325 86.8433L176.502 86.841ZM63.1006 86.8827C65.1089 86.8827 66.5682 87.5711 67.4191 88.9456C69.0309 87.5704 70.7952 86.8827 72.712 86.8827C76.1499 86.878 78.0049 88.9479 78.0049 92.7517V102.15H74.0501V93.0642C74.0501 91.2222 73.1992 90.3153 71.5569 90.3153C70.337 90.3153 69.2696 90.8463 68.3546 91.9083V102.154H64.4089V93.0642C64.4089 91.2222 63.5878 90.3153 61.9455 90.3153C60.6989 90.3153 59.6353 90.8768 58.7226 92.0022V102.154H54.7381V87.16H58.4481V88.5697C59.754 87.4564 61.4037 86.8582 63.1006 86.8827ZM125.012 86.878V90.7523C124.655 90.6555 124.286 90.6135 123.916 90.6278C122.601 90.6651 121.367 91.2928 120.54 92.3453V102.154H116.558V87.16H120.268V88.5344C121.453 87.315 122.761 86.878 125.012 86.878ZM133.734 82.1627V87.16H137.018V90.5338H133.734V102.154H129.777V90.5338H126.709V87.16H129.777V82.1627H133.734ZM143.336 87.16V102.154H139.351V87.16H143.336ZM166.651 79.6934V102.154H162.698V79.6934H166.651ZM105.972 90.3153C103.843 90.3153 102.02 92.0022 102.02 94.6877C102.02 97.3731 103.813 99.0318 105.943 99.0318C107.191 99.0763 108.394 98.5496 109.227 97.594V91.7837C108.398 90.8365 107.212 90.3015 105.972 90.3153ZM88.5473 90.3153C87.2681 90.2965 86.0454 90.8557 85.2032 91.8448V97.5634C86.0133 98.5061 87.1814 99.0417 88.4055 99.0318C90.6425 99.0318 92.4358 97.3755 92.4358 94.6266C92.4358 91.9717 90.6059 90.3153 88.5473 90.3153ZM176.777 90.1861C174.901 90.1861 173.608 91.1133 173.043 92.8246L173.007 92.9373H180.274C179.798 91.1345 178.681 90.2275 176.894 90.1897L176.777 90.1884V90.1861ZM30.4122 72.3066V82.2308L14.9497 92.155V82.2308L30.4122 72.3066ZM45.8746 72.3066V82.2308L30.4122 92.155V82.2308L45.8746 72.3066ZM14.9497 72.3066V82.2308L-0.512726 92.155V82.2308L14.9497 72.3066ZM143.428 81.0373V85.1606H139.26V81.0373H143.428Z" fill="#393939"/>
</g>
</g>
<defs>
<clipPath id="clip0_1_78">
<rect width="184.612" height="184.612" fill="white"/>
</clipPath>
<clipPath id="clip1_1_78">
<rect width="184.612" height="39.9994" fill="white" transform="translate(-0.512726 72.3066)"/>
</clipPath>
</defs>
</svg>
