<svg width="186" height="185" viewBox="0 0 186 185" fill="none" xmlns="http://www.w3.org/2000/svg">
<g clip-path="url(#clip0_1_82)">
<path d="M13.8103 95.4261H19.3437C19.4013 96.5349 19.8048 97.3519 20.5541 97.877C21.361 98.4022 22.4561 98.694 23.7818 98.694C24.7617 98.694 25.5686 98.519 26.3179 98.1105C26.952 97.702 27.2978 97.2351 27.2978 96.5349C27.2978 95.5428 26.145 94.7842 23.8971 94.3174C22.9173 94.1423 22.168 93.9673 21.7068 93.8505C18.8249 93.1503 16.9228 92.275 15.943 91.2829C14.8478 90.2909 14.3291 89.0071 14.3291 87.3148C14.3291 85.214 15.136 83.5217 16.6923 82.1212C18.3062 80.8373 20.4388 80.2538 23.0325 80.2538C25.8568 80.2538 28.1047 80.8957 29.7763 82.1212C31.3325 83.4633 32.1971 85.2723 32.3124 87.4315H28.854C27.8166 87.4315 27.0672 86.9646 26.4909 86.0309C26.2603 85.7975 26.0298 85.6225 25.8568 85.389C25.2228 84.9222 24.3006 84.6304 23.2055 84.6304C22.1103 84.6304 21.3034 84.8055 20.7846 85.0973C20.3235 85.4474 20.0353 85.9142 20.0353 86.5561C20.0353 87.4315 21.4186 88.1901 24.2429 88.7736C24.5888 88.8904 24.877 88.9487 25.1075 89.0071C25.3381 89.0654 25.5686 89.0654 25.7992 89.0654C28.5659 89.7657 30.4679 90.5827 31.5631 91.5163C32.6006 92.5084 33.1193 93.7922 33.1193 95.4845C33.1193 97.877 32.2547 99.7444 30.5256 101.087C28.9117 102.312 26.4909 102.896 23.2055 102.896C20.1506 102.896 17.845 102.254 16.2888 101.028C14.7326 99.7444 13.9256 97.9354 13.9256 95.5428V95.4261H13.8103ZM47.529 86.9646C46.7221 85.7975 45.6269 85.214 44.186 85.214C42.6874 85.214 41.5346 85.7392 40.7276 86.8479C39.9207 87.9567 39.5172 89.4739 39.5172 91.3413V102.662H33.9839V74.4183H36.7506C37.4999 74.4183 38.1339 74.71 38.7103 75.2352C39.229 75.7604 39.5172 76.4607 39.5172 77.2193V83.6967C40.4971 82.0628 41.8804 81.0124 43.6672 80.6039C45.454 80.1954 47.1255 80.2538 48.7971 80.954C50.2957 81.596 51.5637 82.6463 52.6012 84.0469C53.6387 85.4474 54.1575 87.4315 54.1575 89.9407V102.662H48.7394V91.3413C48.7394 90.5243 48.6818 89.7657 48.5089 89.0654C48.336 88.4235 47.9901 87.7232 47.529 86.9646ZM55.3102 80.8373H58.2498C58.9991 80.8373 59.6332 81.1291 60.2095 81.6543C60.7283 82.1795 61.0165 82.8798 61.0165 83.6384V102.662H55.3679V80.8373H55.3102ZM67.7602 107.797C67.7602 108.556 67.472 109.198 66.9533 109.782C66.4345 110.307 65.7429 110.598 64.9936 110.598H62.2269V90.1742C62.2269 86.3227 63.322 83.7551 65.5699 82.3546C67.7602 80.954 70.181 80.2538 72.7748 80.2538C74.1005 80.2538 75.4838 80.4872 76.8671 81.0124C78.2505 81.5376 79.3456 82.2962 80.1525 83.2883C81.7664 85.4474 82.5734 88.1317 82.5734 91.5163C82.5734 94.9593 81.7664 97.7603 80.1525 99.8611C78.5387 101.962 76.4637 102.954 73.9276 102.954C72.6019 102.954 71.3915 102.721 70.354 102.195C69.2588 101.67 68.3942 100.795 67.7602 99.6277V107.797ZM77.0401 91.6914C77.0401 89.5323 76.6366 87.8983 75.8296 86.7896C75.0227 85.6225 73.8699 85.0389 72.3713 85.0389C70.9303 85.0389 69.7776 85.6225 68.9706 86.7896C68.2213 87.84 67.8179 89.4739 67.8179 91.6914C67.8179 93.7922 68.2213 95.3094 69.0283 96.3598C69.8352 97.5269 70.988 98.1105 72.4866 98.1105C73.8699 98.1105 75.0227 97.5269 75.8296 96.3598C76.6366 95.2511 77.0401 93.6755 77.0401 91.6914ZM89.0866 107.797C89.0866 108.556 88.7984 109.198 88.2796 109.782C87.7609 110.307 87.0692 110.598 86.3199 110.598H83.5532V90.1742C83.5532 86.3227 84.6484 83.7551 86.8963 82.3546C89.0866 80.954 91.5074 80.2538 94.1011 80.2538C95.4268 80.2538 96.8102 80.4872 98.1935 81.0124C99.5768 81.5376 100.672 82.2962 101.479 83.2883C103.093 85.4474 103.9 88.1317 103.9 91.5163C103.9 94.9593 103.093 97.7603 101.479 99.8611C99.865 101.962 97.79 102.954 95.2539 102.954C93.9282 102.954 92.7178 102.721 91.6803 102.195C90.5852 101.67 89.7206 100.795 89.0866 99.6277V107.797ZM98.3088 91.6914C98.3088 89.5323 97.9053 87.8983 97.0983 86.7896C96.2914 85.6225 95.1386 85.0389 93.64 85.0389C92.1991 85.0389 91.0463 85.6225 90.2393 86.7896C89.49 87.84 89.0866 89.4739 89.0866 91.6914C89.0866 93.7922 89.49 95.3094 90.297 96.3598C91.1039 97.5269 92.2567 98.1105 93.7553 98.1105C95.1386 98.1105 96.2914 97.5269 97.0983 96.3598C97.9053 95.2511 98.3088 93.6755 98.3088 91.6914ZM118.598 101.612C117.445 102.195 116.234 102.604 114.966 102.721C113.698 102.837 112.603 102.954 111.623 102.954C109.664 102.954 107.992 102.429 106.493 101.378C105.052 100.328 104.303 98.519 104.303 96.068C104.303 93.7922 104.937 92.0999 106.263 91.1662C107.589 90.1742 109.26 89.5323 111.335 89.1821C111.623 89.1821 111.911 89.1238 112.315 89.0654C112.718 89.0071 113.122 88.8904 113.641 88.832C116.004 88.4819 117.214 87.7816 117.214 86.6729C117.214 85.8559 116.811 85.3307 115.946 85.0973C115.082 84.8638 114.332 84.7471 113.641 84.7471C112.891 84.7471 112.2 84.8638 111.623 85.0973C111.047 85.3307 110.586 85.7392 110.298 86.3227H104.88C105.11 84.6304 105.859 83.2299 107.127 82.1212C108.568 80.8373 110.643 80.2538 113.352 80.2538C116.35 80.2538 118.655 80.779 120.154 81.8294C121.71 82.9381 122.517 84.4554 122.517 86.4394V93.9089C122.517 96.1264 122.114 97.8187 121.364 99.0442C120.615 100.153 119.693 101.028 118.598 101.612ZM117.33 91.5163C116.58 91.9248 115.543 92.275 114.159 92.5667L112.315 92.9752C111.335 93.267 110.643 93.6171 110.182 94.0256C109.779 94.6092 109.606 95.2511 109.606 95.8346C109.606 96.6516 109.837 97.2935 110.355 97.8187C110.816 98.2855 111.566 98.4606 112.488 98.4606C113.986 98.4606 115.197 98.0521 116.062 97.1184C116.926 96.2431 117.387 95.0176 117.387 93.5004V91.5163H117.33ZM129.434 76.6358V83.2299C130.01 82.1795 130.875 81.3625 132.027 80.6623C133.007 80.1371 134.16 79.8453 135.601 79.8453C138.137 79.8453 140.212 80.8957 141.826 83.0548C143.44 85.214 144.247 87.9567 144.247 91.3413C144.247 94.7259 143.44 97.4686 141.826 99.6277C141.019 100.678 139.924 101.437 138.541 101.904C137.157 102.37 135.774 102.604 134.448 102.604C131.855 102.604 129.434 101.904 127.243 100.561C125.053 99.2192 123.9 96.5932 123.9 92.6834V73.8347H126.667C127.416 73.8347 128.05 74.1265 128.627 74.6517C129.145 75.1769 129.434 75.8771 129.434 76.6358ZM138.656 91.0495C138.656 89.0654 138.252 87.5482 137.445 86.4394C136.639 85.2723 135.543 84.6888 134.102 84.6888C132.604 84.6888 131.451 85.214 130.644 86.3227C129.837 87.4898 129.434 89.0071 129.434 90.9911C129.434 93.267 129.837 94.9593 130.586 96.0097C131.393 97.1768 132.546 97.7603 133.987 97.7603C135.486 97.7603 136.639 97.1768 137.445 96.0097C138.252 94.9009 138.656 93.267 138.656 91.0495ZM145.227 74.4183H148.166C148.916 74.4183 149.55 74.6517 150.126 75.1769C150.645 75.7021 150.933 76.344 150.933 77.1026V102.662H145.284V74.4183H145.227ZM167.648 95.893H171.683C171.107 98.1688 169.954 99.9195 168.282 101.145C166.611 102.429 164.478 103.012 161.942 103.012C158.887 103.012 156.466 102.02 154.737 99.9778C153.008 97.9938 152.143 95.1927 152.143 91.5163C152.143 88.015 153.008 85.2723 154.679 83.2883C156.409 81.2458 158.829 80.2538 161.884 80.2538C165.112 80.2538 167.648 81.2458 169.435 83.2299C171.164 85.2723 172.029 88.0734 172.029 91.6914V92.275V92.6251C172.029 92.9169 172.029 93.0919 171.971 93.2086H157.965C158.023 94.9009 158.426 96.1847 159.175 97.0017C159.867 97.877 160.904 98.3439 162.345 98.3439C163.268 98.3439 164.075 98.1688 164.709 97.7603C164.882 97.702 164.997 97.5853 165.17 97.4686C165.285 97.3518 165.458 97.1768 165.631 97.0017C165.688 96.8267 165.861 96.5932 166.265 96.3598C166.495 96.0097 167.014 95.893 167.648 95.893ZM157.907 89.4739H166.15C166.034 88.015 165.688 86.9063 164.997 86.206C164.305 85.4474 163.268 85.0389 162 85.0389C160.789 85.0389 159.809 85.4474 159.06 86.206C158.368 86.9646 157.965 88.0734 157.907 89.4739Z" fill="#393939"/>
<path d="M55.3102 74.4182H58.2498C58.9991 74.4182 59.6331 74.71 60.2095 75.2352C60.7283 75.7604 61.0165 76.4606 61.0165 77.2193V78.9699H55.3679V74.4182H55.3102Z" fill="#238189"/>
</g>
<defs>
<clipPath id="clip0_1_82">
<rect width="184.612" height="184.612" fill="white" transform="translate(0.612427)"/>
</clipPath>
</defs>
</svg>
