<svg width="49" height="49" viewBox="0 0 49 49" fill="none" xmlns="http://www.w3.org/2000/svg">
<path d="M41.5374 16.1964C41.3361 15.4782 40.9439 14.8279 40.4025 14.3148C39.8458 13.7858 39.1635 13.4074 38.4201 13.2154C35.6375 12.482 24.4896 12.482 24.4896 12.482C19.8422 12.4291 15.1959 12.6616 10.577 13.1783C9.83345 13.3846 9.15245 13.7714 8.59451 14.3044C8.0463 14.8318 7.64922 15.4823 7.44179 16.195C6.9435 18.8793 6.7014 21.605 6.71875 24.3351C6.70097 27.0628 6.94248 29.7876 7.44179 32.4753C7.64478 33.185 8.04038 33.8325 8.59007 34.3555C9.13976 34.8785 9.82428 35.2563 10.577 35.4564C13.3965 36.1883 24.4896 36.1883 24.4896 36.1883C29.143 36.2412 33.7952 36.0087 38.4201 35.4919C39.1635 35.2999 39.8458 34.9215 40.4025 34.3925C40.9437 33.8795 41.3354 33.2291 41.536 32.5109C42.0473 29.8275 42.2959 27.1008 42.2783 24.3692C42.3167 21.6261 42.0684 18.8865 41.5374 16.195V16.1964ZM20.9455 29.4083V19.2635L30.2206 24.3366L20.9455 29.4083Z" fill="white"/>
</svg>
