<svg width="49" height="49" viewBox="0 0 49 49" fill="none" xmlns="http://www.w3.org/2000/svg">
<path fill-rule="evenodd" clip-rule="evenodd" d="M17.2058 6.74825C19.0925 6.66139 19.694 6.64209 24.5 6.64209C29.306 6.64209 29.9076 6.663 31.7927 6.74825C33.6778 6.83349 34.9645 7.13427 36.0904 7.57016C37.2694 8.01569 38.339 8.71214 39.2236 9.61287C40.1244 10.4959 40.8192 11.5639 41.2631 12.7445C41.7006 13.8704 41.9998 15.1571 42.0866 17.039C42.1735 18.9289 42.1928 19.5305 42.1928 24.3349C42.1928 29.1409 42.1719 29.7424 42.0866 31.6291C42.0014 33.511 41.7006 34.7977 41.2631 35.9236C40.8192 37.1044 40.1232 38.1742 39.2236 39.0585C38.339 39.9592 37.2694 40.654 36.0904 41.098C34.9645 41.5355 33.6778 41.8346 31.7959 41.9215C29.9076 42.0083 29.306 42.0276 24.5 42.0276C19.694 42.0276 19.0925 42.0067 17.2058 41.9215C15.3239 41.8362 14.0372 41.5355 12.9113 41.098C11.7305 40.654 10.6608 39.958 9.77642 39.0585C8.87631 38.1749 8.17975 37.1056 7.73532 35.9252C7.29943 34.7993 7.00026 33.5126 6.91341 31.6307C6.82655 29.7408 6.80725 29.1393 6.80725 24.3349C6.80725 19.5289 6.82816 18.9273 6.91341 17.0422C6.99865 15.1571 7.29943 13.8704 7.73532 12.7445C8.18041 11.564 8.8775 10.4948 9.77803 9.61126C10.6611 8.71134 11.7298 8.0148 12.9097 7.57016C14.0356 7.13427 15.3239 6.8351 17.2058 6.74825ZM31.6495 9.93295C29.7837 9.8477 29.224 9.83001 24.5 9.83001C19.7761 9.83001 19.2163 9.8477 17.3505 9.93295C15.6247 10.0118 14.6886 10.2997 14.0645 10.5425C13.2394 10.8642 12.6491 11.2454 12.0298 11.8647C11.4428 12.4358 10.9911 13.131 10.7077 13.8993C10.4648 14.5234 10.1769 15.4595 10.0981 17.1854C10.0129 19.0512 9.99517 19.6109 9.99517 24.3349C9.99517 29.0588 10.0129 29.6186 10.0981 31.4844C10.1769 33.2102 10.4648 34.1463 10.7077 34.7704C10.9908 35.5376 11.4428 36.2341 12.0298 36.8051C12.6008 37.3921 13.2973 37.8441 14.0645 38.1272C14.6886 38.3701 15.6247 38.658 17.3505 38.7368C19.2163 38.822 19.7744 38.8397 24.5 38.8397C29.2256 38.8397 29.7837 38.822 31.6495 38.7368C33.3754 38.658 34.3115 38.3701 34.9355 38.1272C35.7607 37.8055 36.351 37.4243 36.9702 36.8051C37.5573 36.2341 38.0093 35.5376 38.2924 34.7704C38.5352 34.1463 38.8231 33.2102 38.9019 31.4844C38.9872 29.6186 39.0049 29.0588 39.0049 24.3349C39.0049 19.6109 38.9872 19.0512 38.9019 17.1854C38.8231 15.4595 38.5352 14.5234 38.2924 13.8993C37.9707 13.0742 37.5895 12.4839 36.9702 11.8647C36.3991 11.2777 35.7039 10.826 34.9355 10.5425C34.3115 10.2997 33.3754 10.0118 31.6495 9.93295ZM22.2402 29.7891C23.5022 30.3144 24.9076 30.3853 26.2161 29.9897C27.5247 29.594 28.6552 28.7563 29.4148 27.6197C30.1743 26.483 30.5157 25.118 30.3805 23.7576C30.2454 22.3972 29.6422 21.126 28.6739 20.161C28.0567 19.5441 27.3103 19.0718 26.4886 18.778C25.6669 18.4842 24.7902 18.3762 23.9218 18.4619C23.0533 18.5475 22.2147 18.8247 21.4662 19.2733C20.7177 19.722 20.078 20.3311 19.5932 21.0566C19.1083 21.7822 18.7904 22.6063 18.6622 23.4695C18.5341 24.3327 18.5989 25.2135 18.8521 26.0487C19.1052 26.8838 19.5404 27.6524 20.1262 28.2992C20.7121 28.946 21.4341 29.4548 22.2402 29.7891ZM18.0695 17.9043C18.914 17.0599 19.9165 16.39 21.0199 15.933C22.1232 15.476 23.3058 15.2407 24.5 15.2407C25.6943 15.2407 26.8768 15.476 27.9802 15.933C29.0835 16.39 30.0861 17.0599 30.9305 17.9043C31.775 18.7488 32.4449 19.7513 32.9019 20.8547C33.3589 21.958 33.5942 23.1406 33.5942 24.3349C33.5942 25.5291 33.3589 26.7117 32.9019 27.815C32.4449 28.9184 31.775 29.9209 30.9305 30.7654C29.2251 32.4709 26.9119 33.429 24.5 33.429C22.0881 33.429 19.775 32.4709 18.0695 30.7654C16.364 29.0599 15.4059 26.7468 15.4059 24.3349C15.4059 21.923 16.364 19.6098 18.0695 17.9043ZM35.6111 16.5951C35.8204 16.3977 35.9879 16.1603 36.1038 15.897C36.2196 15.6337 36.2815 15.3498 36.2857 15.0621C36.2899 14.7745 36.2363 14.4889 36.1282 14.2223C36.02 13.9558 35.8595 13.7136 35.6561 13.5102C35.4526 13.3067 35.2105 13.1462 34.9439 13.0381C34.6773 12.9299 34.3918 12.8763 34.1041 12.8805C33.8164 12.8847 33.5326 12.9466 33.2693 13.0625C33.0059 13.1783 32.7686 13.3459 32.5711 13.5551C32.1872 13.9621 31.977 14.5027 31.9852 15.0621C31.9934 15.6216 32.2192 16.1558 32.6148 16.5514C33.0104 16.947 33.5447 17.1729 34.1041 17.181C34.6635 17.1892 35.2041 16.979 35.6111 16.5951Z" fill="white"/>
</svg>
