<svg width="32" height="33" viewBox="0 0 32 33" fill="none" xmlns="http://www.w3.org/2000/svg">
<path d="M22.6667 28.225C20.4617 28.223 18.2911 27.6781 16.3467 26.6383L15.7467 26.305C11.601 24.0761 8.20225 20.6773 5.97333 16.5317L5.64 15.9317C4.57309 13.9762 4.00951 11.7859 4 9.5583V8.66497C3.99944 7.95425 4.28261 7.2727 4.78667 6.77163L7.04 4.5183C7.25884 4.29777 7.56775 4.19147 7.87595 4.23065C8.18415 4.26982 8.45664 4.45003 8.61333 4.7183L11.6133 9.86497C11.9167 10.3888 11.8291 11.0513 11.4 11.4783L8.88 13.9983C8.67072 14.2053 8.62196 14.525 8.76 14.785L9.22667 15.665C10.9027 18.7695 13.4524 21.3146 16.56 22.985L17.44 23.465C17.7 23.603 18.0197 23.5542 18.2267 23.345L20.7467 20.825C21.1736 20.3959 21.8361 20.3083 22.36 20.6117L27.5067 23.6117C27.7749 23.7683 27.9552 24.0409 27.9943 24.349C28.0335 24.6573 27.9272 24.9662 27.7067 25.185L25.4533 27.4383C24.9523 27.9423 24.2707 28.2255 23.56 28.225H22.6667Z" fill="#C4730A"/>
</svg>
