<svg width="32" height="33" viewBox="0 0 32 33" fill="none" xmlns="http://www.w3.org/2000/svg">
<path d="M16.0002 2.89062C10.6749 2.89062 6.34253 7.22302 6.34253 12.5482C6.34253 19.157 14.9851 28.859 15.3531 29.2688C15.6987 29.6537 16.3022 29.653 16.6473 29.2688C17.0151 28.859 25.6578 19.157 25.6578 12.5482C25.6577 7.22302 21.3254 2.89062 16.0002 2.89062ZM16.0002 17.4073C13.3209 17.4073 11.1412 15.2276 11.1412 12.5482C11.1412 9.86896 13.321 7.68926 16.0002 7.68926C18.6794 7.68926 20.8591 9.86901 20.8591 12.5483C20.8591 15.2276 18.6794 17.4073 16.0002 17.4073Z" fill="#C4730A"/>
</svg>
