<svg width="237" height="71" viewBox="0 0 237 71" fill="none" xmlns="http://www.w3.org/2000/svg">
<rect x="0.8232" y="0.83321" width="235.475" height="68.7825" rx="6.31676" stroke="white" stroke-width="1.40373"/>
<path d="M83.3238 18.1046C83.3238 19.575 82.8887 20.7453 82.0166 21.6191C81.0252 22.6579 79.7356 23.1772 78.1494 23.1772C76.6281 23.1772 75.3367 22.6509 74.2751 21.5963C73.21 20.5435 72.6801 19.2363 72.6801 17.6782C72.6801 16.1183 73.21 14.8128 74.2751 13.7583C75.3367 12.7055 76.6281 12.1774 78.1494 12.1774C78.9021 12.1774 79.625 12.3248 80.3093 12.6195C80.9954 12.9143 81.5446 13.3056 81.9569 13.7951L81.0305 14.7216C80.3339 13.8899 79.3741 13.4723 78.1494 13.4723C77.0404 13.4723 76.0824 13.8618 75.2735 14.6409C74.4646 15.4217 74.061 16.4324 74.061 17.6782C74.061 18.9222 74.4646 19.9347 75.2735 20.7137C76.0824 21.4945 77.0404 21.8823 78.1494 21.8823C79.325 21.8823 80.3041 21.491 81.0901 20.7067C81.599 20.1961 81.892 19.4872 81.971 18.5748H78.1494V17.3097H83.2501C83.2992 17.5852 83.3238 17.8501 83.3238 18.1046Z" fill="white"/>
<path d="M83.3238 18.1046C83.3238 19.575 82.8887 20.7453 82.0166 21.6191C81.0252 22.6579 79.7356 23.1772 78.1494 23.1772C76.6281 23.1772 75.3367 22.6509 74.2751 21.5963C73.21 20.5435 72.6801 19.2363 72.6801 17.6782C72.6801 16.1183 73.21 14.8128 74.2751 13.7583C75.3367 12.7055 76.6281 12.1774 78.1494 12.1774C78.9021 12.1774 79.625 12.3248 80.3093 12.6195C80.9954 12.9143 81.5446 13.3056 81.9569 13.7951L81.0305 14.7216C80.3339 13.8899 79.3741 13.4723 78.1494 13.4723C77.0404 13.4723 76.0824 13.8618 75.2735 14.6409C74.4646 15.4217 74.061 16.4324 74.061 17.6782C74.061 18.9222 74.4646 19.9347 75.2735 20.7137C76.0824 21.4945 77.0404 21.8823 78.1494 21.8823C79.325 21.8823 80.3041 21.491 81.0901 20.7067C81.599 20.1961 81.892 19.4872 81.971 18.5748H78.1494V17.3097H83.2501C83.2992 17.5852 83.3238 17.8501 83.3238 18.1046Z" fill="white"/>
<path d="M91.4115 13.7077H86.6178V17.045H90.9413V18.3101H86.6178V21.6475H91.4115V22.9424H85.265V12.4145H91.4115V13.7077Z" fill="white"/>
<path d="M91.4115 13.7077H86.6178V17.045H90.9413V18.3101H86.6178V21.6475H91.4115V22.9424H85.265V12.4145H91.4115V13.7077Z" fill="white"/>
<path d="M97.1159 22.9419H95.7631V13.7072H92.8223V12.414H100.057V13.7072H97.1159V22.9419Z" fill="white"/>
<path d="M97.1159 22.9419H95.7631V13.7072H92.8223V12.414H100.057V13.7072H97.1159V22.9419Z" fill="white"/>
<path d="M105.291 12.414H106.644V22.9419H105.291V12.414Z" fill="white"/>
<path d="M112.644 22.9419H111.291V13.7072H108.35V12.414H115.585V13.7072H112.644V22.9419Z" fill="white"/>
<path d="M112.644 22.9419H111.291V13.7072H108.35V12.414H115.585V13.7072H112.644V22.9419Z" fill="white"/>
<path d="M122.559 20.6997C123.338 21.4893 124.291 21.8823 125.419 21.8823C126.547 21.8823 127.5 21.4893 128.279 20.6997C129.058 19.9101 129.45 18.9029 129.45 17.6782C129.45 16.4534 129.058 15.4445 128.279 14.6567C127.5 13.8671 126.547 13.4723 125.419 13.4723C124.291 13.4723 123.338 13.8671 122.559 14.6567C121.782 15.4445 121.391 16.4534 121.391 17.6782C121.391 18.9029 121.782 19.9101 122.559 20.6997ZM129.279 21.5805C128.244 22.6456 126.958 23.1772 125.419 23.1772C123.88 23.1772 122.594 22.6456 121.561 21.5805C120.526 20.5172 120.01 19.217 120.01 17.6782C120.01 16.1394 120.526 14.8374 121.561 13.7741C122.594 12.7108 123.88 12.1774 125.419 12.1774C126.949 12.1774 128.232 12.7125 129.272 13.7811C130.311 14.8497 130.831 16.1481 130.831 17.6782C130.831 19.217 130.313 20.5172 129.279 21.5805Z" fill="white"/>
<path d="M122.559 20.6997C123.338 21.4893 124.291 21.8823 125.419 21.8823C126.547 21.8823 127.5 21.4893 128.279 20.6997C129.058 19.9101 129.45 18.9029 129.45 17.6782C129.45 16.4534 129.058 15.4445 128.279 14.6567C127.5 13.8671 126.547 13.4723 125.419 13.4723C124.291 13.4723 123.338 13.8671 122.559 14.6567C121.782 15.4445 121.391 16.4534 121.391 17.6782C121.391 18.9029 121.782 19.9101 122.559 20.6997ZM129.279 21.5805C128.244 22.6456 126.958 23.1772 125.419 23.1772C123.88 23.1772 122.594 22.6456 121.561 21.5805C120.526 20.5172 120.01 19.217 120.01 17.6782C120.01 16.1394 120.526 14.8374 121.561 13.7741C122.594 12.7108 123.88 12.1774 125.419 12.1774C126.949 12.1774 128.232 12.7125 129.272 13.7811C130.311 14.8497 130.831 16.1481 130.831 17.6782C130.831 19.217 130.313 20.5172 129.279 21.5805Z" fill="white"/>
<path d="M132.729 22.9419V12.414H134.375L139.491 20.6029H139.551L139.491 18.5746V12.414H140.846V22.9419H139.433L134.08 14.3547H134.022L134.08 16.3848V22.9419H132.729Z" fill="white"/>
<path d="M132.729 22.9419V12.414H134.375L139.491 20.6029H139.551L139.491 18.5746V12.414H140.846V22.9419H139.433L134.08 14.3547H134.022L134.08 16.3848V22.9419H132.729Z" fill="white"/>
<path d="M187.756 52.7709H191.03V30.8361H187.756V52.7709ZM217.246 38.7372L213.493 48.2474H213.381L209.486 38.7372H205.959L211.8 52.0287L208.471 59.4228H211.884L220.887 38.7372H217.246ZM198.679 50.2793C197.605 50.2793 196.11 49.7441 196.11 48.4159C196.11 46.7244 197.972 46.0752 199.581 46.0752C201.019 46.0752 201.698 46.3857 202.572 46.8086C202.318 48.8405 200.568 50.2793 198.679 50.2793ZM199.074 38.2582C196.703 38.2582 194.246 39.3022 193.232 41.6166L196.138 42.8291C196.759 41.6166 197.915 41.2201 199.13 41.2201C200.823 41.2201 202.544 42.236 202.572 44.0433V44.2679C201.979 43.9292 200.711 43.4221 199.158 43.4221C196.026 43.4221 192.836 45.1435 192.836 48.3597C192.836 51.2952 195.405 53.1868 198.282 53.1868C200.484 53.1868 201.698 52.1989 202.46 51.0408H202.572V52.7341H205.732V44.324C205.732 40.4305 202.827 38.2582 199.074 38.2582ZM178.839 41.4078H174.182V33.8891H178.839C181.287 33.8891 182.676 35.9158 182.676 37.6476C182.676 39.3479 181.287 41.4078 178.839 41.4078ZM178.755 30.8361H170.91V52.7709H174.182V44.4609H178.755C182.383 44.4609 185.951 41.8324 185.951 37.6476C185.951 33.4628 182.383 30.8361 178.755 30.8361ZM135.975 50.2828C133.713 50.2828 131.82 48.3896 131.82 45.7892C131.82 43.1607 133.713 41.2376 135.975 41.2376C138.208 41.2376 139.959 43.1607 139.959 45.7892C139.959 48.3896 138.208 50.2828 135.975 50.2828ZM139.735 39.9655H139.621C138.886 39.0899 137.473 38.2986 135.692 38.2986C131.96 38.2986 128.54 41.5763 128.54 45.7892C128.54 49.9722 131.96 53.2236 135.692 53.2236C137.473 53.2236 138.886 52.4323 139.621 51.5269H139.735V52.6025C139.735 55.4573 138.208 56.9838 135.748 56.9838C133.741 56.9838 132.497 55.5415 131.988 54.3255L129.133 55.5134C129.953 57.4927 132.13 59.9229 135.748 59.9229C139.593 59.9229 142.844 57.6611 142.844 52.1498V38.7495H139.735V39.9655ZM145.106 52.7709H148.385V30.8343H145.106V52.7709ZM153.218 45.5347C153.133 42.6519 155.451 41.1815 157.118 41.1815C158.42 41.1815 159.522 41.8307 159.889 42.7642L153.218 45.5347ZM163.395 43.0467C162.773 41.3797 160.878 38.2986 157.006 38.2986C153.161 38.2986 149.968 41.3218 149.968 45.7611C149.968 49.9442 153.133 53.2236 157.373 53.2236C160.794 53.2236 162.773 51.1321 163.593 49.9161L161.049 48.2194C160.201 49.4634 159.041 50.2828 157.373 50.2828C155.706 50.2828 154.518 49.5195 153.754 48.0228L163.733 43.8941L163.395 43.0467ZM83.895 40.5884V43.7538H91.4698C91.2434 45.5347 90.6504 46.8349 89.7467 47.7386C88.643 48.8423 86.9182 50.0582 83.895 50.0582C79.2294 50.0582 75.5832 46.298 75.5832 41.6342C75.5832 36.9686 79.2294 33.2101 83.895 33.2101C86.4111 33.2101 88.2482 34.1997 89.6046 35.4718L91.8383 33.2382C89.9432 31.4291 87.4288 30.043 83.895 30.043C77.5063 30.043 72.1353 35.2455 72.1353 41.6342C72.1353 48.0228 77.5063 53.2236 83.895 53.2236C87.3428 53.2236 89.9432 52.0919 91.9786 49.9722C94.0719 47.8807 94.7211 44.9417 94.7211 42.5659C94.7211 41.8307 94.665 41.1534 94.5509 40.5884H83.895ZM103.335 50.2828C101.073 50.2828 99.1218 48.4176 99.1218 45.7611C99.1218 43.0747 101.073 41.2376 103.335 41.2376C105.595 41.2376 107.546 43.0747 107.546 45.7611C107.546 48.4176 105.595 50.2828 103.335 50.2828ZM103.335 38.2986C99.206 38.2986 95.8424 41.4359 95.8424 45.7611C95.8424 50.0582 99.206 53.2236 103.335 53.2236C107.462 53.2236 110.825 50.0582 110.825 45.7611C110.825 41.4359 107.462 38.2986 103.335 38.2986ZM119.676 50.2828C117.414 50.2828 115.463 48.4176 115.463 45.7611C115.463 43.0747 117.414 41.2376 119.676 41.2376C121.937 41.2376 123.887 43.0747 123.887 45.7611C123.887 48.4176 121.937 50.2828 119.676 50.2828ZM119.676 38.2986C115.549 38.2986 112.185 41.4359 112.185 45.7611C112.185 50.0582 115.549 53.2236 119.676 53.2236C123.803 53.2236 127.166 50.0582 127.166 45.7611C127.166 41.4359 123.803 38.2986 119.676 38.2986Z" fill="white"/>
<path d="M36.4727 34.2133L17.791 54.0408C17.7927 54.0444 17.7927 54.0496 17.7945 54.0531C18.3682 56.2061 20.3334 57.7905 22.6671 57.7905C23.6006 57.7905 24.4762 57.5379 25.2272 57.0957L25.2868 57.0606L46.3145 44.9272L36.4727 34.2133Z" fill="#EA4335"/>
<path d="M55.3718 30.8372L55.3542 30.8249L46.2757 25.5628L36.0479 34.6641L46.3125 44.9253L55.342 39.7157C56.9246 38.8595 58.0002 37.1908 58.0002 35.2677C58.0002 33.3551 56.9404 31.6953 55.3718 30.8372Z" fill="#FBBC04"/>
<path d="M17.7906 16.4096C17.6783 16.8237 17.6187 17.2588 17.6187 17.708V52.7448C17.6187 53.194 17.6783 53.6292 17.7924 54.0415L37.1145 34.7211L17.7906 16.4096Z" fill="#4285F4"/>
<path d="M36.6106 35.2256L46.2787 25.5592L25.2756 13.382C24.5123 12.924 23.621 12.6608 22.6682 12.6608C20.3345 12.6608 18.3658 14.2488 17.792 16.4035C17.792 16.4052 17.7903 16.407 17.7903 16.4087L36.6106 35.2256Z" fill="#34A853"/>
</svg>
