<svg width="131" height="27" viewBox="0 0 131 27" fill="none" xmlns="http://www.w3.org/2000/svg">
<path d="M21.1019 8.3091C26.6101 8.3091 27.8431 11.5401 27.8431 15.2688V18.9826H18.2445V19.8739C18.2814 21.9387 19.0198 22.7558 21.6335 22.7558C23.4165 22.7468 25.1882 22.4714 26.8907 21.9387L27.5626 25.2069C25.5358 25.9419 23.3967 26.3139 21.2422 26.3063C15.8448 26.3063 13.9694 23.7882 13.9694 19.6213V15.0534C13.9694 11.399 15.5938 8.3091 21.1019 8.3091ZM57.2962 8.30168C62.6936 8.30168 64.2885 10.218 64.2885 14.5483L64.2737 25.9496H60.7443L60.4269 24.7761C58.9042 25.773 57.1268 26.3045 55.31 26.3062C52.172 26.3062 50.8282 24.1373 50.8282 21.1588C50.8282 17.6456 52.3492 16.2938 55.8417 16.2938H59.9691V14.4814C59.9691 12.5651 59.4375 11.8892 56.6834 11.8892C55.0812 11.907 53.4863 12.0868 51.921 12.424L51.3894 9.11871C53.3135 8.58388 55.2999 8.30912 57.2962 8.30168ZM85.9076 8.30168C91.7997 8.30168 93.3872 11.5698 93.3872 15.1202V19.4876C93.3945 23.038 91.7997 26.3062 85.9076 26.3062C80.0007 26.3062 78.428 23.038 78.428 19.4876V15.1202C78.428 11.5698 80.0155 8.30168 85.9076 8.30168ZM17.58 2.30018V6.24423H11.0086V25.9496H6.57843L6.56367 6.24423H-0.000335693V2.30018H17.58ZM74.2637 0.881425C75.5111 0.877221 76.7532 1.04466 77.9555 1.37915L77.5051 4.71415C76.6919 4.53818 75.8633 4.44364 75.0316 4.4319C73.3407 4.4319 73.0897 5.17466 73.0897 6.48934V8.6582H77.4682L77.2245 12.1046H73.0971V25.9496H68.7924V12.1046H66.0384V8.6582H68.7924V6.24423C68.7924 2.6567 70.4538 0.881425 74.2637 0.881425ZM119.99 10.1511C122.138 9.0441 124.498 8.41342 126.909 8.30168C129.766 8.30168 130.792 10.322 130.792 13.4119V25.9496H126.488V13.8798C126.488 12.9588 126.096 12.4983 125.114 12.4983C123.534 12.6736 122.007 13.1796 120.633 13.9838V25.9496H116.298V13.8798C116.298 12.9588 115.907 12.4983 114.925 12.4983C113.347 12.6869 111.824 13.192 110.443 13.9838V25.9496H106.139V8.6582H109.424L109.845 10.1437C111.991 9.05184 114.34 8.42435 116.741 8.30168C118.102 8.17244 119.399 8.91074 119.99 10.1511ZM38.9111 8.30168L39.3541 12.2829C37.7686 13.0027 36.2405 13.8445 34.7837 14.8008V25.9422H30.4791V8.6582H34.1118L34.3924 10.5745C35.793 9.62083 37.3123 8.85666 38.9111 8.30168ZM49.4401 8.30168L49.8683 12.2829C48.2878 13.0032 46.7647 13.8451 45.3127 14.8008V25.9422H41.008V8.6582H44.6408L44.9213 10.5745C46.322 9.62083 47.8413 8.85666 49.4401 8.30168ZM104.042 8.30168L104.47 12.2829C102.889 13.0032 101.366 13.8451 99.9142 14.8008V25.9422H95.6096V8.6582H99.2423L99.5229 10.5745C100.923 9.62068 102.443 8.8565 104.042 8.30168ZM59.9691 19.4134H56.7941C55.3839 19.4134 54.9925 19.807 54.9925 21.1143C54.9925 22.4215 55.3839 22.8523 56.7203 22.8523C57.8605 22.8348 58.9779 22.5283 59.9691 21.961V19.4134ZM85.9076 11.9932C83.6113 11.9932 82.7326 13.0256 82.7326 14.9642V19.6139C82.7326 21.5674 83.6187 22.5849 85.9076 22.5849C88.1965 22.5849 89.0825 21.5525 89.0825 19.6139V14.9791C89.0825 13.0256 88.2039 11.9932 85.9076 11.9932ZM21.1388 11.8521C19.0198 11.8521 18.2814 12.9885 18.2814 14.6226V15.499H23.7526V14.6226C23.7526 12.9885 23.2579 11.8521 21.1388 11.8521Z" fill="#393939"/>
</svg>
